<svg xmlns="http://www.w3.org/2000/svg" style="display: none;">
  
    <symbol id="email" viewBox="0 0 512 512">
      <path d="m254 255l207-148c-9-5-19-6-30-6l-355 0c-11 0-20 2-29 6z m244-117c-1 3-3 4-6 6l-223 160c-4 3-10 4-15 4-6 0-11-1-15-4l-224-160c-2-1-3-3-5-6-7 11-11 24-11 38l0 156c0 43 35 77 76 77l356 0c43 0 77-35 77-77l0-156c1-13-4-26-10-38z"/>
    </symbol>
  
    <symbol id="external-link" viewBox="0 0 512 512">
      <path d="m411 0l-313 0c-54 0-98 44-98 98l0 313c0 54 44 98 98 98l313 0c54 0 98-44 98-98l0-313c0-54-44-98-98-98z m21 287c0 18-14 33-32 33-18 0-33-15-33-33l0-99-148 148c-13 11-33 11-45-2-12-12-13-31-1-44l148-148-99 0c-18 0-33-15-33-33 0-18 15-33 33-33l178 0c2 0 4 0 6 1l1 0c12 3 22 12 24 25 0 0 0 0 0 0 1 2 1 5 1 7z"/>
    </symbol>
  
    <symbol id="pdf" viewBox="0 0 512 512">
      <path d="m330 85l0-85-232 0c-54 0-98 44-98 98l0 313c0 54 44 98 98 98l313 0c54 0 98-44 98-98l0-228-81 0c-54 0-98-43-98-98z m98 55l81 0-136-140 0 85c0 30 25 55 55 55z m-299 107c8-1 16 1 24 4 6 3 12 8 16 13 4 6 7 12 9 18 1 7 2 14 2 21 0 9-1 17-4 25-3 7-7 13-13 18-5 5-12 8-19 10-8 3-16 4-24 3l-20 0 0 77-38 0 0-189z m-12 85c7 0 13-2 18-7 5-6 8-14 7-22 1-7-1-15-6-22-5-5-13-8-20-7l-16 0 0 57z m146-85c11-1 22 1 32 6 8 4 15 11 19 18 5 9 8 19 9 29 2 13 3 26 3 38 0 15-1 29-3 44-2 11-6 21-11 30-5 8-12 14-20 18-10 4-20 6-31 6l-60 0 0-189z m-7 160c6 1 11-1 16-3 5-3 8-7 10-11 3-7 4-14 5-21 0-9 1-19 1-33 0-11 0-20-1-28-1-7-2-14-5-20-1-5-5-9-9-12-6-3-12-5-18-4l-16 0 0 132z m200-160l0 31-67 0 0 44 63 0 0 31-63 0 0 83-38 0 0-189z"/>
    </symbol>
  
</svg>
